<!-- Generated by IcoMoon.io -->
<svg version="1.1" xmlns="http://www.w3.org/2000/svg" width="32" height="32" viewBox="0 0 32 32">
<path d="M16 30c-3.713 0-7.274-1.475-9.899-4.101s-4.101-6.186-4.101-9.899 1.475-7.274 4.101-9.899c2.626-2.626 6.186-4.101 9.899-4.101s7.274 1.475 9.899 4.101c2.626 2.626 4.101 6.186 4.101 9.899s-1.475 7.274-4.101 9.899c-2.625 2.626-6.186 4.101-9.899 4.101zM16 32c4.243 0 8.313-1.686 11.314-4.686s4.686-7.070 4.686-11.314c0-4.243-1.686-8.313-4.686-11.314s-7.070-4.686-11.314-4.686c-4.243 0-8.313 1.686-11.314 4.686s-4.686 7.070-4.686 11.314c0 4.243 1.686 8.313 4.686 11.314s7.070 4.686 11.314 4.686z"></path>
<path d="M21.94 9.94l-0.040 0.044-6.946 8.85-4.186-4.188c-0.284-0.265-0.66-0.409-1.049-0.402s-0.759 0.164-1.034 0.439c-0.275 0.275-0.432 0.646-0.439 1.034s0.137 0.765 0.402 1.049l5.292 5.294c0.143 0.142 0.312 0.254 0.499 0.33s0.387 0.112 0.588 0.108c0.201-0.004 0.4-0.048 0.584-0.13s0.349-0.2 0.487-0.348l7.984-9.98c0.272-0.285 0.42-0.666 0.414-1.060s-0.168-0.77-0.45-1.046c-0.282-0.276-0.66-0.43-1.054-0.429s-0.772 0.157-1.052 0.435z"></path>
</svg>
